<svg xmlns="http://www.w3.org/2000/svg" xmlns:xlink="http://www.w3.org/1999/xlink"><defs>
<clipPath id="clip0_109_1783">
<rect width="24" height="24" fill="white"/>
</clipPath>

<clipPath id="clip0_109_1789">
<rect width="24" height="24" fill="white"/>
</clipPath>
</defs><symbol id="arrow-down" viewBox="0 0 24 24">
<path d="M12 4.5V19.5M12 19.5L18.75 12.75M12 19.5L5.25 12.75" stroke-width="2" stroke-linecap="round" stroke-linejoin="round"/>
</symbol><symbol id="arrow-left" viewBox="0 0 28 28">
<path d="M22.75 14L5.25 14M5.25 14L13.125 21.875M5.25 14L13.125 6.125" stroke-width="2" stroke-linecap="round" stroke-linejoin="round"/>
</symbol><symbol id="arrow-right" viewBox="0 0 30 30">
<path d="M5.625 15L24.375 15M24.375 15L15.9375 6.5625M24.375 15L15.9375 23.4375" stroke-width="2" stroke-linecap="round" stroke-linejoin="round"/>
</symbol><symbol id="calendar" viewBox="0 0 24 24">
<path d="M6.75 3V5.25M17.25 3V5.25M3 18.75V7.5C3 6.25736 4.00736 5.25 5.25 5.25H18.75C19.9926 5.25 21 6.25736 21 7.5V18.75M3 18.75C3 19.9926 4.00736 21 5.25 21H18.75C19.9926 21 21 19.9926 21 18.75M3 18.75V11.25C3 10.0074 4.00736 9 5.25 9H18.75C19.9926 9 21 10.0074 21 11.25V18.75" stroke-width="1.5" stroke-linecap="round" stroke-linejoin="round"/>
</symbol><symbol id="catalog" viewBox="0 0 24 24">
<path d="M5.56641 4.65724C5.9435 4.55472 6.34029 4.5 6.74986 4.5H17.2499C17.6594 4.5 18.0562 4.55472 18.4333 4.65724C17.9406 3.67454 16.924 3 15.7499 3H8.24986C7.0757 3 6.0591 3.67454 5.56641 4.65724Z"/>
<path d="M2.25 12C2.25 10.3431 3.59315 9 5.25 9H18.75C20.4069 9 21.75 10.3431 21.75 12V18C21.75 19.6569 20.4069 21 18.75 21H5.25C3.59315 21 2.25 19.6569 2.25 18V12Z"/>
<path d="M5.24986 7.5C4.84029 7.5 4.4435 7.55472 4.06641 7.65724C4.5591 6.67454 5.5757 6 6.74986 6H17.2499C18.424 6 19.4406 6.67454 19.9333 7.65724C19.5562 7.55472 19.1594 7.5 18.7499 7.5H5.24986Z"/>
</symbol><symbol id="clock-stroke" viewBox="0 0 24 24">
<path d="M12 6V12H16.5M21 12C21 16.9706 16.9706 21 12 21C7.02944 21 3 16.9706 3 12C3 7.02944 7.02944 3 12 3C16.9706 3 21 7.02944 21 12Z" stroke-width="1.5" stroke-linecap="round" stroke-linejoin="round"/>
</symbol><symbol id="clock" viewBox="0 0 24 24">
<path fill-rule="evenodd" clip-rule="evenodd" d="M12 2.25C6.61522 2.25 2.25 6.61522 2.25 12C2.25 17.3848 6.61522 21.75 12 21.75C17.3848 21.75 21.75 17.3848 21.75 12C21.75 6.61522 17.3848 2.25 12 2.25ZM12.75 6C12.75 5.58579 12.4142 5.25 12 5.25C11.5858 5.25 11.25 5.58579 11.25 6V12C11.25 12.4142 11.5858 12.75 12 12.75H16.5C16.9142 12.75 17.25 12.4142 17.25 12C17.25 11.5858 16.9142 11.25 16.5 11.25H12.75V6Z"/>
</symbol><symbol id="eye" viewBox="0 0 24 24">
<path d="M12 15C13.6569 15 15 13.6569 15 12C15 10.3431 13.6569 9 12 9C10.3431 9 9 10.3431 9 12C9 13.6569 10.3431 15 12 15Z"/>
<path fill-rule="evenodd" clip-rule="evenodd" d="M1.32341 11.4467C2.81066 6.97571 7.02791 3.75 12.0005 3.75C16.9708 3.75 21.1864 6.97271 22.6755 11.4405C22.7959 11.8015 22.796 12.1922 22.6759 12.5533C21.1886 17.0243 16.9714 20.25 11.9988 20.25C7.02847 20.25 2.81284 17.0273 1.32374 12.5595C1.2034 12.1985 1.20328 11.8078 1.32341 11.4467ZM17.25 12C17.25 14.8995 14.8995 17.25 12 17.25C9.1005 17.25 6.75 14.8995 6.75 12C6.75 9.1005 9.1005 6.75 12 6.75C14.8995 6.75 17.25 9.1005 17.25 12Z"/>
</symbol><symbol id="facebook" viewBox="0 0 24 24">
<g clip-path="url(#clip0_109_1783)">
<path d="M24 12C24 5.37258 18.6274 0 12 0C5.37258 0 0 5.37258 0 12C0 17.9895 4.3882 22.954 10.125 23.8542V15.4687H7.07812V12H10.125V9.35625C10.125 6.34875 11.9166 4.6875 14.6576 4.6875C15.9701 4.6875 17.3438 4.92187 17.3438 4.92187V7.875H15.8306C14.34 7.875 13.875 8.80008 13.875 9.75V12H17.2031L16.6711 15.4687H13.875V23.8542C19.6118 22.954 24 17.9895 24 12Z"/>
</g>

</symbol><symbol id="genres" viewBox="0 0 24 24">
<path d="M3.75 6C3.75 4.75736 4.75736 3.75 6 3.75H8.25C9.49264 3.75 10.5 4.75736 10.5 6V8.25C10.5 9.49264 9.49264 10.5 8.25 10.5H6C4.75736 10.5 3.75 9.49264 3.75 8.25V6Z" stroke-width="1.5" stroke-linecap="round" stroke-linejoin="round"/>
<path d="M3.75 15.75C3.75 14.5074 4.75736 13.5 6 13.5H8.25C9.49264 13.5 10.5 14.5074 10.5 15.75V18C10.5 19.2426 9.49264 20.25 8.25 20.25H6C4.75736 20.25 3.75 19.2426 3.75 18V15.75Z" stroke-width="1.5" stroke-linecap="round" stroke-linejoin="round"/>
<path d="M13.5 6C13.5 4.75736 14.5074 3.75 15.75 3.75H18C19.2426 3.75 20.25 4.75736 20.25 6V8.25C20.25 9.49264 19.2426 10.5 18 10.5H15.75C14.5074 10.5 13.5 9.49264 13.5 8.25V6Z" stroke-width="1.5" stroke-linecap="round" stroke-linejoin="round"/>
<path d="M13.5 15.75C13.5 14.5074 14.5074 13.5 15.75 13.5H18C19.2426 13.5 20.25 14.5074 20.25 15.75V18C20.25 19.2426 19.2426 20.25 18 20.25H15.75C14.5074 20.25 13.5 19.2426 13.5 18V15.75Z" stroke-width="1.5" stroke-linecap="round" stroke-linejoin="round"/>
</symbol><symbol id="like" viewBox="0 0 28 28">
<path d="M7.738 11.9584C8.67874 11.9584 9.52756 11.4382 10.1081 10.698C11.0101 9.54785 12.147 8.59067 13.4465 7.89862C14.289 7.44994 15.02 6.78337 15.3745 5.89712C15.6226 5.27699 15.75 4.61522 15.75 3.94732V3.20837C15.75 2.72512 16.1418 2.33337 16.625 2.33337C18.0747 2.33337 19.25 3.50863 19.25 4.95837C19.25 6.30194 18.9472 7.57478 18.4061 8.71236C18.0962 9.36376 18.5309 10.2084 19.2522 10.2084M19.2522 10.2084H22.899C24.0968 10.2084 25.1689 11.018 25.2957 12.209C25.3481 12.7016 25.375 13.2019 25.375 13.7084C25.375 17.0306 24.2178 20.0825 22.2845 22.4831C21.8323 23.0446 21.1332 23.3334 20.4123 23.3334H15.727C15.1627 23.3334 14.6021 23.2424 14.0668 23.064L10.4332 21.8528C9.89791 21.6743 9.33732 21.5834 8.77304 21.5834H6.88824M19.2522 10.2084H16.625M6.88824 21.5834C6.98485 21.822 7.08999 22.0564 7.20327 22.2859C7.43326 22.7521 7.11223 23.3334 6.59245 23.3334H5.53337C4.49654 23.3334 3.5349 22.729 3.23232 21.7373C2.83743 20.4431 2.625 19.0693 2.625 17.6459C2.625 15.8347 2.96894 14.1038 3.59507 12.515C3.95097 11.6119 4.86189 11.0834 5.83258 11.0834H7.0608C7.61138 11.0834 7.93019 11.7319 7.64435 12.2025C6.6802 13.7898 6.125 15.653 6.125 17.6459C6.125 19.0383 6.39604 20.3674 6.88824 21.5834Z" stroke-width="2" stroke-linecap="round" stroke-linejoin="round"/>
</symbol><symbol id="linked-in" viewBox="0 0 24 24">
<g clip-path="url(#clip0_109_1789)">
<path d="M22.2234 0H1.77187C0.792187 0 0 0.773438 0 1.72969V22.2656C0 23.2219 0.792187 24 1.77187 24H22.2234C23.2031 24 24 23.2219 24 22.2703V1.72969C24 0.773438 23.2031 0 22.2234 0ZM7.12031 20.4516H3.55781V8.99531H7.12031V20.4516ZM5.33906 7.43438C4.19531 7.43438 3.27188 6.51094 3.27188 5.37187C3.27188 4.23281 4.19531 3.30937 5.33906 3.30937C6.47813 3.30937 7.40156 4.23281 7.40156 5.37187C7.40156 6.50625 6.47813 7.43438 5.33906 7.43438ZM20.4516 20.4516H16.8937V14.8828C16.8937 13.5562 16.8703 11.8453 15.0422 11.8453C13.1906 11.8453 12.9094 13.2937 12.9094 14.7891V20.4516H9.35625V8.99531H12.7687V10.5609H12.8156C13.2891 9.66094 14.4516 8.70938 16.1813 8.70938C19.7859 8.70938 20.4516 11.0813 20.4516 14.1656V20.4516Z"/>
</g>

</symbol><symbol id="notification" viewBox="0 0 34 34">
<path d="M21.0472 24.1991C23.7312 23.8807 26.3193 23.2497 28.7741 22.3435C26.7386 20.0841 25.4997 17.093 25.4997 13.8125V12.8197C25.4999 12.7965 25.5 12.7732 25.5 12.75C25.5 8.05558 21.6944 4.25 17 4.25C12.3056 4.25 8.5 8.05558 8.5 12.75L8.49972 13.8125C8.49972 17.093 7.2608 20.0841 5.22534 22.3435C7.68032 23.2498 10.2686 23.8808 12.9528 24.1992M21.0472 24.1991C19.72 24.3565 18.3693 24.4375 16.9997 24.4375C15.6303 24.4375 14.2798 24.3565 12.9528 24.1992M21.0472 24.1991C21.1789 24.6091 21.25 25.0462 21.25 25.5C21.25 27.8472 19.3472 29.75 17 29.75C14.6528 29.75 12.75 27.8472 12.75 25.5C12.75 25.0463 12.8211 24.6091 12.9528 24.1992" stroke-width="2" stroke-linecap="round" stroke-linejoin="round"/>
</symbol><symbol id="play-circle" viewBox="0 0 30 30">
<path d="M26.25 15C26.25 21.2132 21.2132 26.25 15 26.25C8.7868 26.25 3.75 21.2132 3.75 15C3.75 8.7868 8.7868 3.75 15 3.75C21.2132 3.75 26.25 8.7868 26.25 15Z" stroke-width="1.5" stroke-linecap="round" stroke-linejoin="round"/>
<path d="M19.8874 14.5902C20.2089 14.7688 20.2089 15.2312 19.8874 15.4098L12.8839 19.3006C12.5715 19.4742 12.1875 19.2483 12.1875 18.8909V11.1091C12.1875 10.7517 12.5715 10.5258 12.8839 10.6994L19.8874 14.5902Z" stroke-width="1.5" stroke-linecap="round" stroke-linejoin="round"/>
</symbol><symbol id="play" viewBox="0 0 28 28">
<path fill-rule="evenodd" clip-rule="evenodd" d="M5.25 6.59479C5.25 4.93097 7.03383 3.87624 8.4917 4.67807L21.9557 12.0833C23.4668 12.9144 23.4668 15.0856 21.9557 15.9167L8.4917 23.3219C7.03383 24.1238 5.25 23.069 5.25 21.4052V6.59479Z"/>
</symbol><symbol id="plus" viewBox="0 0 28 28">
<path d="M14 7V21M21 14L7 14" stroke-width="2" stroke-linecap="round" stroke-linejoin="round"/>
</symbol><symbol id="search" viewBox="0 0 34 34">
<path d="M29.75 29.75L22.388 22.388M22.388 22.388C24.3108 20.4653 25.5 17.809 25.5 14.875C25.5 9.00697 20.743 4.25 14.875 4.25C9.00697 4.25 4.25 9.00697 4.25 14.875C4.25 20.743 9.00697 25.5 14.875 25.5C17.809 25.5 20.4653 24.3108 22.388 22.388Z" stroke-width="2" stroke-linecap="round" stroke-linejoin="round"/>
</symbol><symbol id="star" viewBox="0 0 24 24">
<path d="M11.4807 3.4987C11.6729 3.03673 12.3273 3.03673 12.5195 3.4987L14.6454 8.61016C14.7264 8.80492 14.9096 8.93799 15.1199 8.95485L20.6381 9.39724C21.1369 9.43722 21.3391 10.0596 20.9591 10.3851L16.7548 13.9866C16.5946 14.1238 16.5246 14.3391 16.5736 14.5443L17.858 19.9292C17.9741 20.4159 17.4447 20.8005 17.0177 20.5397L12.2933 17.6541C12.1133 17.5441 11.8869 17.5441 11.7069 17.6541L6.98251 20.5397C6.55551 20.8005 6.02606 20.4159 6.14215 19.9292L7.42664 14.5443C7.47558 14.3391 7.40562 14.1238 7.24543 13.9866L3.04111 10.3851C2.66112 10.0596 2.86335 9.43722 3.36209 9.39724L8.88034 8.95485C9.0906 8.93799 9.27375 8.80492 9.35476 8.61016L11.4807 3.4987Z" stroke-width="1.5" stroke-linecap="round" stroke-linejoin="round"/>
</symbol><symbol id="translate" viewBox="0 0 24 24">
<path d="M10.5 21L15.75 9.75L21 21M12 18H19.5M3 5.62136C4.96557 5.37626 6.96804 5.25 9 5.25M9 5.25C10.1208 5.25 11.2326 5.28841 12.3343 5.364M9 5.25V3M12.3343 5.364C11.1763 10.6578 7.68868 15.0801 3 17.5023M12.3343 5.364C13.2298 5.42545 14.1186 5.51146 15 5.62136M10.4113 14.1162C8.78554 12.4619 7.47704 10.4949 6.58432 8.31366" stroke-width="1.5" stroke-linecap="round" stroke-linejoin="round"/>
</symbol><symbol id="twitter" viewBox="0 0 24 24">
<path d="M7.55016 21.75C16.6045 21.75 21.5583 14.2467 21.5583 7.74186C21.5583 7.53092 21.5536 7.3153 21.5442 7.10436C22.5079 6.40746 23.3395 5.54425 24 4.5553C23.1025 4.9546 22.1496 5.21538 21.1739 5.32874C22.2013 4.71291 22.9705 3.74547 23.3391 2.60577C22.3726 3.17856 21.3156 3.58261 20.2134 3.80061C19.4708 3.01156 18.489 2.48912 17.4197 2.31405C16.3504 2.13899 15.2532 2.32105 14.2977 2.8321C13.3423 3.34314 12.5818 4.15471 12.1338 5.14131C11.6859 6.12792 11.5754 7.23462 11.8195 8.2903C9.86249 8.19209 7.94794 7.6837 6.19998 6.7981C4.45203 5.91249 2.90969 4.66944 1.67297 3.14952C1.0444 4.23324 0.852057 5.51565 1.13503 6.73609C1.418 7.95654 2.15506 9.02345 3.19641 9.71999C2.41463 9.69517 1.64998 9.48468 0.965625 9.10592V9.16686C0.964925 10.3041 1.3581 11.4066 2.07831 12.2868C2.79852 13.167 3.80132 13.7706 4.91625 13.995C4.19206 14.1931 3.43198 14.222 2.69484 14.0794C3.00945 15.0574 3.62157 15.9129 4.44577 16.5263C5.26997 17.1398 6.26512 17.4806 7.29234 17.5012C5.54842 18.8711 3.39417 19.6141 1.17656 19.6106C0.783287 19.61 0.390399 19.5859 0 19.5384C2.25286 20.9837 4.87353 21.7514 7.55016 21.75Z"/>
</symbol><symbol id="volume" viewBox="0 0 28 28">
<path d="M22.2997 6.57535C26.4002 10.6759 26.4002 17.3241 22.2997 21.4246M19.2064 9.66904C21.5984 12.061 21.5984 15.9391 19.2064 18.3311M7.875 9.62504L13.3813 4.11875C13.9325 3.56753 14.875 3.95793 14.875 4.73747V23.2626C14.875 24.0421 13.9325 24.4325 13.3813 23.8813L7.875 18.375H5.26056C4.23466 18.375 3.27356 17.7842 3.0011 16.7951C2.75595 15.9052 2.625 14.9679 2.625 14C2.625 13.0322 2.75595 12.0949 3.0011 11.205C3.27356 10.2159 4.23466 9.62504 5.26056 9.62504H7.875Z" stroke-width="2" stroke-linecap="round" stroke-linejoin="round"/>
</symbol></svg>